<?xml version="1.0" encoding="UTF-8" standalone="no"?><!DOCTYPE svg PUBLIC "-//W3C//DTD SVG 1.1//EN" "http://www.w3.org/Graphics/SVG/1.1/DTD/svg11.dtd"><svg width="100%" height="100%" viewBox="0 0 11 11" version="1.1" xmlns="http://www.w3.org/2000/svg" xmlns:xlink="http://www.w3.org/1999/xlink" xml:space="preserve" xmlns:serif="http://www.serif.com/" style="fill-rule:evenodd;clip-rule:evenodd;stroke-linecap:round;stroke-linejoin:round;stroke-miterlimit:5;"><g id="Layer-1" serif:id="Layer 1"><path d="M10.24,0.512l0,9.216c0,0.283 -0.229,0.512 -0.512,0.512l-9.216,0c-0.283,0 -0.512,-0.229 -0.512,-0.512l0,-9.216c0,-0.283 0.229,-0.512 0.512,-0.512l9.216,-0c0.283,-0 0.512,0.229 0.512,0.512Z"/><path d="M10.075,0.658l0,8.924c0,0.274 -0.222,0.497 -0.497,0.497l-8.935,-0c-0.275,-0 -0.497,-0.223 -0.497,-0.497l-0,-8.924c-0,-0.274 0.222,-0.497 0.497,-0.497l8.935,0c0.275,0 0.497,0.223 0.497,0.497Z" style="fill:none;stroke:#f63;stroke-width:0.13px;"/></g><g><path d="M6.415,2.648l-2.187,4.951l-1.107,-0l-2.195,-4.951l1.022,-0l1.726,4.117l1.735,-4.117l1.006,-0Z" style="fill:#999;fill-rule:nonzero;stroke:#999;stroke-width:0.04px;stroke-linecap:butt;stroke-miterlimit:2;"/><rect x="5.11" y="4.102" width="0.675" height="3.498" style="fill:#f63;fill-rule:nonzero;stroke:#f63;stroke-width:0.04px;stroke-linecap:butt;stroke-miterlimit:2;"/><path d="M9.332,4.102l-0,0.468l-1.096,-0l0,3.03l-0.675,-0l0,-3.03l-1.101,-0l-0,-0.468l2.872,-0Z" style="fill:#f63;fill-rule:nonzero;stroke:#f63;stroke-width:0.04px;stroke-linecap:butt;stroke-miterlimit:2;"/></g></svg>